# ProBuilder 4.5.2
# https://unity3d.com/unity/features/worldbuilding/probuilder
# 9/20/2021 5:55:44 PM

mtllib ./Chair_1.mtl
o Chair 1

g Chair 1 (9)
v 0 0 0
v -0.5 0 0
v -0.5 0.75 0
v 0 0.75 0
v -1 0.4357451 0.0001000166
v -1 1.185845 0.0001000166
v -0.5 1.185845 0.0001000166
v -0.5 0.4357451 0.0001000166
v -0.5 1.5 0
v 0 1.5 0
v -1.5 0 0
v -2 0 0
v -2 0.75 0
v -1.5 0.75 0
v -2 1.5 0
v -1.5 1.5 0
v -1.5 1.185845 0.0001000166
v -1.5 0.4357451 0.0001000166
v -1 1.5 -1.285033
v -1.5 1.5 -1.285033
v -1.5 2.25 -1.285033
v -1 2.25 -1.285033
v -2.0001 1.5 -0.9999
v -2.0001 2.25 -0.9999
v -1.5001 3.0001 -0.9999
v -1 3.0001 -0.9999
v 0.0001000166 1.5 -0.9999
v -0.5 1.5 -1.285033
v -0.5 2.25 -1.285033
v 0.0001000166 2.25 -0.9999
v -0.5 3.0001 -0.9999
v -0.4999 3.0001 -0.9999
v -2 0 -0.5
v -2 0.75 -0.5
v -2 0.75 -1
v -2 1.5 -1
v -2 1.5 -0.5
v -2 0 -1.014377
v -2 0 -1.514377
v -2 0.75 -1.514377
v -2 0.75 -1.014377
v -2 1.5 -1.514377
v -2 1.5 -1.014377
v -2 2.25 -1.014377
v -2 2.25 -1
v -2 2.25 -1.514377
v -1.5 3 -1.514377
v -1.5 3 -1.014377
v -1.5 3 -1
v -1 0.75 -1.514377
v -1 1.5 -1.514377
v -1.5 1.5 -1.514377
v -1.5 0.75 -1.514377
v -1.5 0 -1.514377
v 0 0 -1.514377
v 0 0.75 -1.514377
v -0.5 0.75 -1.514377
v -0.5 0 -1.514377
v 0 1.5 -1.514377
v -0.5 1.5 -1.514377
v 0 2.25 -1.514377
v -0.5 2.25 -1.514377
v -0.5 3 -1.514377
v -1 3 -1.514377
v -1 2.25 -1.514377
v -1.5 2.25 -1.514377
v 0 0.75 -1
v 0 1.5 -1
v 0 1.5 -1.014377
v 0 0.75 -1.014377
v 0 0 -1.014377
v 0 0.75 -0.5
v 0 0 -0.5
v 0 1.5 -0.5
v 0.0001000166 2.25 -1.014377
v 0 2.25 -1
v -0.5 3 -1
v -0.5 3 -1.014377
v -1 3.0001 -1.014377
v -1 3 -1
v -0.5 0 -1.014377
v -1.5 0 -1.014377
v -1.5 0 -0.5
v -0.5 0 -0.5
v -0.5 1.185845 -0.9999
v -1 1.185845 -0.9999
v -1.5 1.185845 -0.9999
v -0.4999 3.0001 -1.514377
v -1 0.75 0
v -1.5 0.75 -0.5000001
v -0.5 0 -0.5
v 0 0 -0.4999999
v 0 0.75 -0.4999999
v -0.5 0.75 -0.5
v -1.5 0.75 -1.014377
v -1.5 0 0
v -1.5 0.75 0
v -0.5000001 0.75 -0.5
v -0.4999999 0 -1.514377
v -0.4999999 0.75 -1.514377
v -0.5 0.75 -1.014377
v -0.5 0 -1.014377
v -0.5 0.75 -1.014377

vt 0 0
vt -0.5 0
vt -0.5 0.75
vt 0 0.75
vt -1 0.4357451
vt -1 1.185845
vt -0.5 1.185845
vt -0.5 0.4357451
vt -0.5 1.5
vt 0 1.5
vt -1.5 0
vt -2 0
vt -2 0.75
vt -1.5 0.75
vt -2 1.5
vt -1.5 1.5
vt -1.5 1.185845
vt -1.5 0.4357451
vt -1 1.5
vt -1.5 2.25
vt -1 2.25
vt -0.6665999 1.5
vt -1.242274 1.5
vt -1.242274 2.25
vt -0.6665999 2.25
vt -1.242274 1.553653
vt -0.8079138 2.343578
vt -0.6665998 1.553653
vt -1.5 2.44904
vt -1 2.44904
vt -1 1.646575
vt -1.5 1.646575
vt -0.4951664 1.5
vt -1.070841 1.5
vt -1.070841 2.25
vt -0.4951664 2.25
vt -0.5 2.25
vt -1 3.052465
vt -0.5 3.052465
vt -0.9296135 2.65407
vt -0.4951664 1.86413
vt -1.070841 1.86413
vt 0 -0.228094
vt -0.5 -0.228094
vt -0.5 0.5170125
vt 0 0.5170125
vt -1 0.5170125
vt -1 1.262119
vt -0.5 1.262119
vt 0 1.262119
vt -1.014377 -0.228094
vt -1.514377 -0.228094
vt -1.514377 0.5170125
vt -1.014377 0.5170125
vt -1.514377 1.262119
vt -1.014377 1.262119
vt -1.014377 2.007226
vt -1 2.007226
vt -1.514377 2.007226
vt -1.514377 2.809355
vt -1.014377 2.809355
vt -1 2.809355
vt -0.9999 1.5
vt -1.014377 1.5
vt -1.014377 2.25
vt -0.9999 2.25
vt -1.514377 1.5
vt -1.514377 2.25
vt 1 0.75
vt 1 1.5
vt 1.5 1.5
vt 1.5 0.75
vt 2 1.5
vt 2 0.75
vt 2 0
vt 1.5 0
vt 0.5 0.75
vt 0.5 0
vt 0.5 1.5
vt 0 2.25
vt 0.5 2.25
vt 0.5 3
vt 1 3
vt 1 2.25
vt 1.5 2.25
vt 1.5 3
vt 2 2.25
vt 1 0.7451065
vt 1 1.490213
vt 1.014377 1.490213
vt 1.014377 0.7451065
vt 1.514377 1.490213
vt 1.514377 0.7451065
vt 1.514377 0
vt 1.014377 0
vt 0 0.7451065
vt 0.5 0.7451065
vt 0 1.490213
vt 0.5 1.490213
vt 0.9999 1.5
vt 0.9999 2.25
vt 1.014377 2.25
vt 1.014377 1.5
vt 1.514377 2.25
vt 1.514377 1.5
vt 1 2.235319
vt 1.014377 2.235319
vt 1 3.037449
vt 1.014377 3.037449
vt 1.514377 3.037449
vt 1.514377 2.235319
vt -1.5 3.485623
vt -1.5 3.985623
vt -1 3.985623
vt -1 3.485623
vt -1.242761 4.242862
vt -1.242761 3.742862
vt -1.257238 3.742862
vt -1.257238 4.242862
vt -0.5 3.985623
vt -0.5 3.485623
vt -0.7572384 4.242862
vt -0.7427615 4.242862
vt -0.7427615 3.742862
vt -0.7572384 3.742862
vt -1.257188 3.242812
vt -0.7571884 3.242812
vt -0.7428116 3.242812
vt 0 -1.014377
vt 0 -1.514377
vt -0.5 -1.514377
vt -0.5 -1.014377
vt -2 -1.514377
vt -2 -1.014377
vt -1.5 -1.014377
vt -1.5 -1.514377
vt -2 -0.5
vt -1.5 -0.5
vt 0 -0.5
vt -0.5 -0.5
vt 1 0.0001000166
vt 0.5 -0.9999
vt 1 -0.9999
vt -2.992812 3.992229
vt -2.992812 3.492229
vt -3.507189 3.992229
vt -3.507189 3.492229
vt 1.5 -0.9999
vt 1.000388 0.7628204
vt 1.000291 1.664208
vt 1.514765 0.7628204
vt 1.514668 1.664291
vt -2.492812 3.992229
vt -2.492812 3.492229
vt -3.007189 3.992229
vt -3.007189 3.492229
vt -2.242762 3.742279
vt -2.757138 3.742279
vt 1.5 -1.285033
vt 2.0001 -0.9999
vt -2.0001 -0.9999
vt 1.514765 1.5
vt 1.514765 2.25
vt -0.999838 2.77368
vt -0.9999999 1.872293
vt -1.514215 2.773801
vt -1.514377 1.87233
vt -3.242862 3.742179
vt -3.757238 3.742279
vt -0.0001000166 -0.9999
vt 0.5 -1.285033
vt 0.5 0.7499999
vt 1 0.7499999
vt 0.5 0.435745
vt 1 0.435745
vt -1 1.974363
vt -0.5 1.974363
vt -1 1.550106
vt -0.5 1.550106
vt -0.0001000166 1.185845
vt -0.0001000166 0.4357451
vt -1.285033 1.5
vt -0.9999 1.185845
vt 1.5 0.7499999
vt 1.5 0.435745
vt 1.285033 1.5
vt 0.9999 1.185845
vt -1.5 1.974363
vt -1.5 1.550106
vt -0.5 0.75
vt -2.485623 0.5273743
vt -1.985623 0.5273741
vt -1.985623 -0.2148897
vt -2.485623 -0.2148896
vt -0.4999999 0.5273744
vt 1.788139E-07 0.5273743
vt 1.192093E-07 -0.2148896
vt -0.4999999 -0.2148896
vt 0.07227036 0.9897124
vt 0.7610076 0.7066063
vt 0.4277296 -0.1041887
vt -0.2610076 0.1789173
vt 2.413353 -0.1041885
vt 1.724616 0.1789171
vt 2.057893 0.9897121
vt 2.74663 0.7066065
vt 0.07396445 0.9275148
vt 0.7662721 0.6390533
vt 0.4260354 -0.1775148
vt -0.2662722 0.1109467
vt 1.926035 -0.1775148
vt 1.233728 0.1109467
vt 1.573964 0.9275148
vt 2.266272 0.6390533

vn 0 0 1
vn 0.4953029 0 0.8687204
vn 0.4703318 -0.3135127 0.8249229
vn 0.2351659 -0.334417 0.8798336
vn 0 -0.3553214 0.9347442
vn -0.4953028 0 0.8687204
vn -0.2351612 -0.1567846 0.9124534
vn -0.4703224 -0.3135692 0.8249068
vn -1 0 0
vn -0.8320503 0.5547002 0
vn 0 0 -1
vn 1 0 0
vn 0.8320503 0.5547002 0
vn 0 1 0
vn 0 -1 0
vn 0.8320503 -0.5547002 -0.0001615929
vn -0.8320503 -0.5547002 -0.0002695143
vn 0 -0.0003182658 -0.9999999
vn 0 0.672076 0.7404821

usemtl ProBuilderDefault
f 63/158/15 88/158/15 77/157/15
f 23/161/15 37/137/15 15/12/15
f 47/169/15 47/169/15 49/168/15
f 44/57/9 43/56/9 36/48/9
f 36/48/9 45/58/9 44/57/9
f 46/59/9 42/55/9 43/56/9
f 43/56/9 44/57/9 46/59/9
f 75/107/12 76/106/12 68/89/12
f 68/89/12 69/90/12 75/107/12
f 61/111/12 75/107/12 69/90/12
f 69/90/12 59/92/12 61/111/12
f 79/125/14 64/118/14 47/126/14
f 47/126/14 48/127/14 79/125/14
f 80/124/14 79/125/14 48/127/14
f 48/127/14 49/128/14 80/124/14
f 78/122/14 63/119/14 64/118/14
f 64/118/14 79/125/14 78/122/14
f 77/123/14 78/122/14 79/125/14
f 79/125/14 80/124/14 77/123/14
f 64/147/15 80/145/15 49/144/15
f 49/144/15 47/146/15 64/147/15
f 47/152/16 49/150/16 45/149/16
f 45/149/16 46/151/16 47/152/16
f 63/156/15 77/154/15 80/153/15
f 80/153/15 64/155/15 63/156/15
f 46/163/12 45/84/12 36/70/12
f 36/70/12 42/162/12 46/163/12
f 61/167/17 76/165/17 77/164/17
f 77/164/17 88/166/17 61/167/17
f 59/67/9 68/19/9 76/21/9
f 76/21/9 61/68/9 59/67/9
f 5/175/18 89/173/18 3/172/18
f 3/172/18 8/174/18 5/175/18
f 8/181/12 3/4/12 9/10/12
f 9/10/12 7/180/12 8/181/12
f 18/185/18 14/184/18 89/173/18
f 89/173/18 5/175/18 18/185/18

usemtl New_Material
f 61/80/11 62/81/11 63/82/11
f 66/85/11 46/87/11 47/86/11
f 3/3/1 2/2/1 1/1/1
f 1/1/1 4/4/1 3/3/1
f 6/6/1 5/5/1 8/8/1
f 8/8/1 7/7/1 6/6/1
f 9/9/1 3/3/1 4/4/1
f 4/4/1 10/10/1 9/9/1
f 13/13/1 12/12/1 11/11/1
f 11/11/1 14/14/1 13/13/1
f 15/15/1 13/13/1 14/14/1
f 14/14/1 16/16/1 15/15/1
f 17/17/1 18/18/1 5/5/1
f 5/5/1 6/6/1 17/17/1
f 21/20/1 20/16/1 19/19/1
f 19/19/1 22/21/1 21/20/1
f 24/24/2 23/23/2 20/22/2
f 20/22/2 21/25/2 24/24/2
f 25/27/4 24/26/3 21/28/4
f 21/28/4 25/27/5 25/27/4
f 25/29/5 21/32/5 22/31/5
f 22/31/5 26/30/5 25/29/5
f 29/35/6 28/34/6 27/33/6
f 27/33/6 30/36/6 29/35/6
f 22/21/1 19/19/1 28/9/1
f 28/9/1 29/37/1 22/21/1
f 26/38/5 22/21/5 29/37/5
f 29/37/5 31/39/5 26/38/5
f 31/40/7 29/42/8 30/41/7
f 30/41/7 32/40/1 31/40/7
f 34/45/9 33/44/9 12/43/9
f 12/43/9 13/46/9 34/45/9
f 36/48/9 35/47/9 34/45/9
f 34/45/9 37/49/9 36/48/9
f 37/49/9 34/45/9 13/46/9
f 13/46/9 15/50/9 37/49/9
f 40/53/9 39/52/9 38/51/9
f 38/51/9 41/54/9 40/53/9
f 42/55/9 40/53/9 41/54/9
f 41/54/9 43/56/9 42/55/9
f 43/56/9 41/54/9 35/47/9
f 35/47/9 36/48/9 43/56/9
f 47/60/10 46/59/10 44/57/10
f 44/57/10 48/61/10 47/60/10
f 48/61/10 44/57/10 45/58/10
f 45/58/10 49/62/10 48/61/10
f 44/65/9 43/64/9 23/63/9
f 23/63/9 24/66/9 44/65/9
f 46/68/9 42/67/9 43/64/9
f 43/64/9 44/65/9 46/68/9
f 52/71/11 51/70/11 50/69/11
f 50/69/11 53/72/11 52/71/11
f 42/73/11 52/71/11 53/72/11
f 53/72/11 40/74/11 42/73/11
f 40/74/11 53/72/11 54/76/11
f 54/76/11 39/75/11 40/74/11
f 57/77/11 56/4/11 55/1/11
f 55/1/11 58/78/11 57/77/11
f 60/79/11 59/10/11 56/4/11
f 56/4/11 57/77/11 60/79/11
f 51/70/11 60/79/11 57/77/11
f 57/77/11 50/69/11 51/70/11
f 62/81/11 61/80/11 59/10/11
f 59/10/11 60/79/11 62/81/11
f 64/83/11 63/82/11 62/81/11
f 62/81/11 65/84/11 64/83/11
f 65/84/11 62/81/11 60/79/11
f 60/79/11 51/70/11 65/84/11
f 66/85/11 65/84/11 51/70/11
f 51/70/11 52/71/11 66/85/11
f 47/86/11 64/83/11 65/84/11
f 65/84/11 66/85/11 47/86/11
f 46/87/11 66/85/11 52/71/11
f 52/71/11 42/73/11 46/87/11
f 69/90/12 68/89/12 67/88/12
f 67/88/12 70/91/12 69/90/12
f 59/92/12 69/90/12 70/91/12
f 70/91/12 56/93/12 59/92/12
f 56/93/12 70/91/12 71/95/12
f 71/95/12 55/94/12 56/93/12
f 72/97/12 4/96/12 1/1/12
f 1/1/12 73/78/12 72/97/12
f 74/99/12 10/98/12 4/96/12
f 4/96/12 72/97/12 74/99/12
f 68/89/12 74/99/12 72/97/12
f 72/97/12 67/88/12 68/89/12
f 75/102/12 30/101/12 27/100/12
f 27/100/12 69/103/12 75/102/12
f 61/104/12 75/102/12 69/103/12
f 69/103/12 59/105/12 61/104/12
f 78/109/13 77/108/13 76/106/13
f 76/106/13 75/107/13 78/109/13
f 63/110/13 78/109/13 75/107/13
f 75/107/13 61/111/13 63/110/13
f 78/114/14 63/113/14 64/112/14
f 64/112/14 79/115/14 78/114/14
f 31/116/14 78/119/14 79/118/14
f 79/118/14 26/117/14 31/116/14
f 79/120/14 64/114/14 47/115/14
f 47/115/14 48/121/14 79/120/14
f 26/123/14 79/122/14 48/125/14
f 48/125/14 25/124/14 26/123/14
f 71/129/15 81/132/15 58/131/15
f 58/131/15 55/130/15 71/129/15
f 82/135/15 38/134/15 39/133/15
f 39/133/15 54/136/15 82/135/15
f 11/11/15 12/12/15 33/137/15
f 33/137/15 83/138/15 11/11/15
f 1/1/15 2/2/15 84/140/15
f 84/140/15 73/139/15 1/1/15
f 23/160/14 15/75/14 16/76/14
f 16/76/14 20/159/14 23/160/14
f 28/171/14 9/78/14 10/1/14
f 10/1/14 27/170/14 28/171/14
f 7/180/9 9/10/9 28/182/9
f 28/182/9 85/183/9 7/180/9
f 87/187/12 20/186/12 16/10/12
f 16/10/12 17/180/12 87/187/12
f 90/11/11 83/14/11 33/13/11
f 33/13/11 34/12/11 90/11/11
f 93/1/11 92/4/11 91/190/11
f 91/190/11 94/2/11 93/1/11
f 95/193/12 82/192/12 54/191/12
f 54/191/12 53/194/12 95/193/12
f 97/197/12 96/196/12 83/195/12
f 83/195/12 90/198/12 97/197/12
f 3/199/9 98/202/9 84/201/9
f 84/201/9 2/200/9 3/199/9
f 101/205/9 100/204/9 99/203/9
f 99/203/9 102/206/9 101/205/9
f 70/207/1 103/210/1 81/209/1
f 81/209/1 71/208/1 70/207/1
f 95/213/1 41/212/1 38/211/1
f 38/211/1 82/214/1 95/213/1

usemtl New_Material_1
f 85/142/14 86/143/14 6/141/14 7/78/14
f 86/143/14 87/148/14 17/76/14 6/141/14
f 86/178/19 85/179/19 28/177/19 19/176/19
f 87/189/19 86/178/19 19/176/19 20/188/19

