# ProBuilder 5.0.3
# https://unity3d.com/unity/features/worldbuilding/probuilder
# 9/21/2021 12:15:27 AM

mtllib ./Note.mtl
o Note

g Note
v 0.8723865 -0.2787704 -0.5
v 0.8723866 -0.2787703 0.5
v 0.9878569 -0.3454372 -0.5
v 0.9878569 -0.345437 0.5
v 1.116647 -0.3109277 -0.5
v 1.116647 -0.3109276 0.5
v 1.183314 -0.1954572 -0.5
v 1.183314 -0.1954571 0.5
v 1.148804 -0.06666677 -0.5
v 1.148804 -0.06666673 0.5
v 1.033334 3.636146E-09 -0.5
v 1.033334 3.636146E-09 0.5
v -0.3333335 -5.868786E-09 -0.5
v -0.3333335 -5.868786E-09 0.5
v -0.4276147 0.0942811 -0.5
v -0.4276147 0.0942811 0.5
v -0.427615 0.2276148 -0.5
v -0.427615 0.2276148 0.5
v -0.3285867 0.3171491 -0.4999775
v -0.3285867 0.3238629 0.5
v -0.195253 0.3171491 -0.4999775
v -0.1905056 0.3218967 0.5
v -0.100972 0.2228681 -0.4999775
v -0.09622452 0.2276154 0.5

vt -0.8948941 -0.5
vt -0.8948941 0.5
vt -1.028228 -0.5
vt -1.028228 0.5
vt -0.8647899 -0.5000001
vt -0.86479 0.4999999
vt -0.9981236 -0.5000001
vt -0.9981235 0.4999999
vt -0.5000002 0.4223834
vt -0.5000002 0.2890497
vt 0.4999998 0.2890499
vt 0.4999998 0.4223835
vt -0.5000001 -0.4950624
vt 0.4999999 -0.4950623
vt -0.5000001 -0.3617288
vt 0.4999999 -0.3617287
vt 1.028227 -0.5
vt 1.028227 0.5
vt 0.8948938 -0.5
vt 0.8948938 0.5
vt 1.033334 -0.5
vt -0.3333335 -0.5
vt -0.3333335 0.5
vt 1.033334 0.5
vt -0.2357025 -0.5
vt -0.2357025 0.5
vt -0.3690363 -0.5
vt -0.3690363 0.5
vt -0.5 0.09428177
vt 0.5 0.09428177
vt -0.5 0.2276154
vt 0.5 0.2276154
vt 0.1480026 -0.4977735
vt 0.01458666 -0.4977741
vt 0.1480026 0.502215
vt 0.009907344 0.502215
vt 0.3330691 -0.4984674
vt 0.1997489 -0.4984582
vt 0.1950696 0.5015308
vt 0.3331647 0.5015308
vt 0.3623231 -0.4993875
vt 0.2289896 -0.4993875
vt 0.2289895 0.5006125
vt 0.3623232 0.5006125
vt 0.8948942 -0.5
vt 1.028228 -0.5
vt 0.8647901 -0.5000001
vt 0.8647903 0.4999999
vt 0.9981238 -0.5000001
vt 0.9981237 0.4999999
vt 0.5000002 0.4223835
vt 0.5000002 0.2890498
vt -0.4999998 0.2890502
vt -0.4999997 0.4223838
vt 0.5000001 -0.4950624
vt -0.4999999 -0.4950623
vt 0.5000001 -0.3617287
vt -0.4999999 -0.3617286
vt -1.028228 -0.5
vt -0.8948939 -0.5
vt -1.033334 -0.5
vt 0.3333334 -0.5000002
vt 0.3333336 0.5
vt -1.033334 0.5000002
vt 0.2357026 -0.5
vt 0.2357026 0.5
vt 0.3690363 -0.5
vt 0.3690363 0.5
vt -0.1645407 -0.5
vt -0.03103787 -0.4999775
vt -0.1645407 0.5
vt -0.02653522 0.5
vt -0.3285866 -0.4978369
vt -0.1952529 -0.4978369
vt -0.1905055 0.5021499
vt -0.3285866 0.5021631
vt -0.362323 -0.4993875
vt -0.2289895 -0.4993875
vt -0.2289894 0.5006125
vt -0.3623231 0.5006125

vn 0.4999997 0.8660256 -1.330406E-07
vn 0.1305254 0.9914449 -1.485327E-07
vn -0.6087628 0.7933523 -1.722171E-07
vn -0.9914451 0.1305246 -1.338915E-07
vn -0.7933528 -0.6087621 -6.423038E-08
vn -0.2588188 -0.9659259 -5.406785E-09
vn -0.3826831 -0.9238797 0
vn -0.9238791 -0.3826845 0
vn -0.9139629 0.4057979 0
vn -0.9175987 0.3975058 -0.001311861
vn -0.3676957 0.9299332 -0.004904588
vn -0.3727967 0.9278954 -0.005716901
vn 0.3859648 0.9224889 -0.006743344
vn 0.3892419 0.9211146 -0.006221043
vn 0.7070912 0.7070905 -0.006713914
vn -0.4999999 -0.8660255 1.032383E-07
vn -0.1305254 -0.9914449 1.627471E-07
vn 0.6087628 -0.7933523 1.816059E-07
vn 0.9914451 -0.1305249 1.259694E-07
vn 0.793353 0.6087619 8.959584E-08
vn 0.2588188 0.9659259 4.133558E-09
vn 0.382683 0.9238797 0
vn 0.923879 0.3826846 0
vn 0.9139628 -0.405798 0
vn 0.9175986 -0.397506 0.001311862
vn 0.3676956 -0.9299332 0.004904589
vn 0.3727966 -0.9278954 0.005716902
vn -0.3859647 -0.9224889 0.006743343
vn -0.3892419 -0.9211146 0.006221042
vn -0.7070912 -0.7070906 0.006713911

usemtl Paper
f 13/22/7 11/21/6 12/24/6 14/23/7
f 9/17/5 10/18/5 12/20/6 11/19/6
f 7/13/4 8/14/4 10/16/5 9/15/5
f 5/10/3 6/11/3 8/12/4 7/9/4
f 3/5/2 4/6/2 6/8/3 5/7/3
f 4/4/2 3/3/2 1/1/1 2/2/1
f 13/25/7 14/26/7 16/28/8 15/27/8
f 15/29/8 16/30/8 18/32/10 17/31/9
f 17/33/9 18/35/10 20/36/12 19/34/11
f 19/37/11 20/40/12 22/39/14 21/38/13
f 21/41/13 22/44/14 24/43/15 23/42/15
f 12/64/21 11/61/21 13/62/22 14/63/22
f 11/60/21 12/2/21 10/4/20 9/59/20
f 9/57/20 10/58/20 8/56/19 7/55/19
f 7/51/19 8/54/19 6/53/18 5/52/18
f 5/49/18 6/50/18 4/48/17 3/47/17
f 1/45/16 3/46/17 4/18/17 2/20/16
f 15/67/23 16/68/23 14/66/22 13/65/22
f 17/32/24 18/31/25 16/29/23 15/30/23
f 19/70/26 20/72/27 18/71/25 17/69/24
f 21/74/28 22/75/29 20/76/27 19/73/26
f 23/78/30 24/79/30 22/80/29 21/77/28

